<mxfile host="app.diagrams.net" agent="Mozilla/5.0 (Windows NT 10.0; Win64; x64; rv:141.0) Gecko/20100101 Firefox/141.0" version="28.1.0">
  <diagram name="Seite-1" id="zS-QnQvDe2Hph_ruHdWV">
    <mxGraphModel dx="1351" dy="721" grid="1" gridSize="10" guides="1" tooltips="1" connect="1" arrows="1" fold="1" page="1" pageScale="1" pageWidth="827" pageHeight="1169" math="0" shadow="0">
      <root>
        <mxCell id="0" />
        <mxCell id="1" parent="0" />
        <mxCell id="bYGNK0m0bsK2GhtcvSeD-1" value="CREATED" style="rounded=0;whiteSpace=wrap;html=1;" vertex="1" parent="1">
          <mxGeometry x="80" y="280" width="160" height="40" as="geometry" />
        </mxCell>
        <mxCell id="bYGNK0m0bsK2GhtcvSeD-2" value="WAITING" style="rounded=0;whiteSpace=wrap;html=1;" vertex="1" parent="1">
          <mxGeometry x="80" y="340" width="160" height="40" as="geometry" />
        </mxCell>
        <mxCell id="bYGNK0m0bsK2GhtcvSeD-3" value="EXECUTING" style="rounded=0;whiteSpace=wrap;html=1;" vertex="1" parent="1">
          <mxGeometry x="80" y="400" width="160" height="40" as="geometry" />
        </mxCell>
        <mxCell id="bYGNK0m0bsK2GhtcvSeD-4" value="SUCCESSFUL" style="rounded=0;whiteSpace=wrap;html=1;" vertex="1" parent="1">
          <mxGeometry x="80" y="460" width="160" height="40" as="geometry" />
        </mxCell>
        <mxCell id="bYGNK0m0bsK2GhtcvSeD-28" style="edgeStyle=orthogonalEdgeStyle;rounded=0;orthogonalLoop=1;jettySize=auto;html=1;exitX=0.5;exitY=1;exitDx=0;exitDy=0;entryX=0.5;entryY=0;entryDx=0;entryDy=0;" edge="1" parent="1" source="bYGNK0m0bsK2GhtcvSeD-5" target="bYGNK0m0bsK2GhtcvSeD-6">
          <mxGeometry relative="1" as="geometry" />
        </mxCell>
        <mxCell id="bYGNK0m0bsK2GhtcvSeD-5" value="CREATED" style="rounded=0;whiteSpace=wrap;html=1;" vertex="1" parent="1">
          <mxGeometry x="280" y="280" width="160" height="40" as="geometry" />
        </mxCell>
        <mxCell id="bYGNK0m0bsK2GhtcvSeD-29" style="edgeStyle=orthogonalEdgeStyle;rounded=0;orthogonalLoop=1;jettySize=auto;html=1;exitX=0.5;exitY=1;exitDx=0;exitDy=0;entryX=0.5;entryY=0;entryDx=0;entryDy=0;" edge="1" parent="1" source="bYGNK0m0bsK2GhtcvSeD-6" target="bYGNK0m0bsK2GhtcvSeD-7">
          <mxGeometry relative="1" as="geometry" />
        </mxCell>
        <mxCell id="bYGNK0m0bsK2GhtcvSeD-6" value="WAITING" style="rounded=0;whiteSpace=wrap;html=1;" vertex="1" parent="1">
          <mxGeometry x="280" y="340" width="160" height="40" as="geometry" />
        </mxCell>
        <mxCell id="bYGNK0m0bsK2GhtcvSeD-30" style="edgeStyle=orthogonalEdgeStyle;rounded=0;orthogonalLoop=1;jettySize=auto;html=1;exitX=0.5;exitY=1;exitDx=0;exitDy=0;entryX=0.5;entryY=0;entryDx=0;entryDy=0;" edge="1" parent="1" source="bYGNK0m0bsK2GhtcvSeD-7" target="bYGNK0m0bsK2GhtcvSeD-8">
          <mxGeometry relative="1" as="geometry" />
        </mxCell>
        <mxCell id="bYGNK0m0bsK2GhtcvSeD-7" value="EXECUTING" style="rounded=0;whiteSpace=wrap;html=1;" vertex="1" parent="1">
          <mxGeometry x="280" y="400" width="160" height="40" as="geometry" />
        </mxCell>
        <mxCell id="bYGNK0m0bsK2GhtcvSeD-8" value="FAILED" style="rounded=0;whiteSpace=wrap;html=1;" vertex="1" parent="1">
          <mxGeometry x="280" y="460" width="160" height="40" as="geometry" />
        </mxCell>
        <mxCell id="bYGNK0m0bsK2GhtcvSeD-9" value="" style="endArrow=classic;html=1;rounded=0;exitX=0.5;exitY=1;exitDx=0;exitDy=0;entryX=0.5;entryY=0;entryDx=0;entryDy=0;" edge="1" parent="1" source="bYGNK0m0bsK2GhtcvSeD-1" target="bYGNK0m0bsK2GhtcvSeD-2">
          <mxGeometry width="50" height="50" relative="1" as="geometry">
            <mxPoint x="460" y="450" as="sourcePoint" />
            <mxPoint x="510" y="400" as="targetPoint" />
          </mxGeometry>
        </mxCell>
        <mxCell id="bYGNK0m0bsK2GhtcvSeD-11" value="" style="endArrow=classic;html=1;rounded=0;exitX=0.5;exitY=1;exitDx=0;exitDy=0;entryX=0.5;entryY=0;entryDx=0;entryDy=0;" edge="1" parent="1" source="bYGNK0m0bsK2GhtcvSeD-2" target="bYGNK0m0bsK2GhtcvSeD-3">
          <mxGeometry width="50" height="50" relative="1" as="geometry">
            <mxPoint x="460" y="450" as="sourcePoint" />
            <mxPoint x="510" y="400" as="targetPoint" />
          </mxGeometry>
        </mxCell>
        <mxCell id="bYGNK0m0bsK2GhtcvSeD-12" value="" style="endArrow=classic;html=1;rounded=0;exitX=0.5;exitY=1;exitDx=0;exitDy=0;entryX=0.5;entryY=0;entryDx=0;entryDy=0;" edge="1" parent="1" source="bYGNK0m0bsK2GhtcvSeD-3" target="bYGNK0m0bsK2GhtcvSeD-4">
          <mxGeometry width="50" height="50" relative="1" as="geometry">
            <mxPoint x="460" y="450" as="sourcePoint" />
            <mxPoint x="510" y="400" as="targetPoint" />
          </mxGeometry>
        </mxCell>
        <mxCell id="bYGNK0m0bsK2GhtcvSeD-20" style="edgeStyle=orthogonalEdgeStyle;rounded=0;orthogonalLoop=1;jettySize=auto;html=1;exitX=0.5;exitY=1;exitDx=0;exitDy=0;entryX=0.5;entryY=0;entryDx=0;entryDy=0;" edge="1" parent="1" source="bYGNK0m0bsK2GhtcvSeD-13" target="bYGNK0m0bsK2GhtcvSeD-14">
          <mxGeometry relative="1" as="geometry" />
        </mxCell>
        <mxCell id="bYGNK0m0bsK2GhtcvSeD-13" value="CREATED" style="rounded=0;whiteSpace=wrap;html=1;" vertex="1" parent="1">
          <mxGeometry x="480" y="280" width="160" height="40" as="geometry" />
        </mxCell>
        <mxCell id="bYGNK0m0bsK2GhtcvSeD-21" style="edgeStyle=orthogonalEdgeStyle;rounded=0;orthogonalLoop=1;jettySize=auto;html=1;exitX=0.5;exitY=1;exitDx=0;exitDy=0;entryX=0.5;entryY=0;entryDx=0;entryDy=0;dashed=1;strokeColor=light-dark(#8a8a8a, #ededed);" edge="1" parent="1" source="bYGNK0m0bsK2GhtcvSeD-14" target="bYGNK0m0bsK2GhtcvSeD-15">
          <mxGeometry relative="1" as="geometry" />
        </mxCell>
        <mxCell id="bYGNK0m0bsK2GhtcvSeD-26" style="edgeStyle=orthogonalEdgeStyle;rounded=0;orthogonalLoop=1;jettySize=auto;html=1;exitX=1;exitY=0.5;exitDx=0;exitDy=0;entryX=0;entryY=0.25;entryDx=0;entryDy=0;" edge="1" parent="1" source="bYGNK0m0bsK2GhtcvSeD-14" target="bYGNK0m0bsK2GhtcvSeD-18">
          <mxGeometry relative="1" as="geometry" />
        </mxCell>
        <mxCell id="bYGNK0m0bsK2GhtcvSeD-14" value="WAITING" style="rounded=0;whiteSpace=wrap;html=1;" vertex="1" parent="1">
          <mxGeometry x="480" y="340" width="160" height="40" as="geometry" />
        </mxCell>
        <mxCell id="bYGNK0m0bsK2GhtcvSeD-22" style="edgeStyle=orthogonalEdgeStyle;rounded=0;orthogonalLoop=1;jettySize=auto;html=1;exitX=0.5;exitY=1;exitDx=0;exitDy=0;entryX=0.5;entryY=0;entryDx=0;entryDy=0;dashed=1;strokeColor=light-dark(#8a8a8a, #ededed);" edge="1" parent="1" source="bYGNK0m0bsK2GhtcvSeD-15" target="bYGNK0m0bsK2GhtcvSeD-17">
          <mxGeometry relative="1" as="geometry" />
        </mxCell>
        <mxCell id="bYGNK0m0bsK2GhtcvSeD-24" style="edgeStyle=orthogonalEdgeStyle;rounded=0;orthogonalLoop=1;jettySize=auto;html=1;exitX=1;exitY=0.5;exitDx=0;exitDy=0;entryX=0;entryY=0.5;entryDx=0;entryDy=0;" edge="1" parent="1" source="bYGNK0m0bsK2GhtcvSeD-15" target="bYGNK0m0bsK2GhtcvSeD-18">
          <mxGeometry relative="1" as="geometry" />
        </mxCell>
        <mxCell id="bYGNK0m0bsK2GhtcvSeD-15" value="EXECUTING" style="rounded=0;whiteSpace=wrap;html=1;" vertex="1" parent="1">
          <mxGeometry x="480" y="400" width="160" height="40" as="geometry" />
        </mxCell>
        <mxCell id="bYGNK0m0bsK2GhtcvSeD-25" style="edgeStyle=orthogonalEdgeStyle;rounded=0;orthogonalLoop=1;jettySize=auto;html=1;exitX=1;exitY=0.5;exitDx=0;exitDy=0;entryX=0;entryY=0.75;entryDx=0;entryDy=0;" edge="1" parent="1" source="bYGNK0m0bsK2GhtcvSeD-17" target="bYGNK0m0bsK2GhtcvSeD-18">
          <mxGeometry relative="1" as="geometry" />
        </mxCell>
        <mxCell id="bYGNK0m0bsK2GhtcvSeD-17" value="SUCCESSFUL" style="rounded=0;whiteSpace=wrap;html=1;" vertex="1" parent="1">
          <mxGeometry x="480" y="460" width="160" height="40" as="geometry" />
        </mxCell>
        <mxCell id="bYGNK0m0bsK2GhtcvSeD-27" style="edgeStyle=orthogonalEdgeStyle;rounded=0;orthogonalLoop=1;jettySize=auto;html=1;exitX=0.5;exitY=1;exitDx=0;exitDy=0;entryX=0.5;entryY=0;entryDx=0;entryDy=0;" edge="1" parent="1" source="bYGNK0m0bsK2GhtcvSeD-18" target="bYGNK0m0bsK2GhtcvSeD-19">
          <mxGeometry relative="1" as="geometry" />
        </mxCell>
        <mxCell id="bYGNK0m0bsK2GhtcvSeD-18" value="&lt;font style=&quot;font-size: 10px;&quot;&gt;CANCELLATION_REQUESTED&lt;/font&gt;" style="rounded=0;whiteSpace=wrap;html=1;" vertex="1" parent="1">
          <mxGeometry x="680" y="400" width="160" height="40" as="geometry" />
        </mxCell>
        <mxCell id="bYGNK0m0bsK2GhtcvSeD-19" value="CANCELLED" style="rounded=0;whiteSpace=wrap;html=1;" vertex="1" parent="1">
          <mxGeometry x="680" y="460" width="160" height="40" as="geometry" />
        </mxCell>
        <mxCell id="bYGNK0m0bsK2GhtcvSeD-31" value="&lt;font style=&quot;font-size: 14px;&quot;&gt;&lt;b&gt;Life cycle &quot;job status&quot; for linking jobs in Geolinking Service SoRa&lt;/b&gt;&lt;/font&gt;" style="text;html=1;align=center;verticalAlign=middle;whiteSpace=wrap;rounded=0;" vertex="1" parent="1">
          <mxGeometry x="220" y="210" width="480" height="30" as="geometry" />
        </mxCell>
        <mxCell id="bYGNK0m0bsK2GhtcvSeD-32" value="CREATED" style="rounded=0;whiteSpace=wrap;html=1;" vertex="1" parent="1">
          <mxGeometry x="180" y="680" width="160" height="40" as="geometry" />
        </mxCell>
        <mxCell id="bYGNK0m0bsK2GhtcvSeD-48" style="edgeStyle=orthogonalEdgeStyle;rounded=0;orthogonalLoop=1;jettySize=auto;html=1;exitX=0.5;exitY=1;exitDx=0;exitDy=0;entryX=0.5;entryY=0;entryDx=0;entryDy=0;" edge="1" parent="1" source="bYGNK0m0bsK2GhtcvSeD-33" target="bYGNK0m0bsK2GhtcvSeD-45">
          <mxGeometry relative="1" as="geometry" />
        </mxCell>
        <mxCell id="bYGNK0m0bsK2GhtcvSeD-33" value="WAITING" style="rounded=0;whiteSpace=wrap;html=1;" vertex="1" parent="1">
          <mxGeometry x="180" y="740" width="160" height="40" as="geometry" />
        </mxCell>
        <mxCell id="bYGNK0m0bsK2GhtcvSeD-40" style="edgeStyle=orthogonalEdgeStyle;rounded=0;orthogonalLoop=1;jettySize=auto;html=1;exitX=0;exitY=0.5;exitDx=0;exitDy=0;entryX=0.5;entryY=0;entryDx=0;entryDy=0;" edge="1" parent="1" source="bYGNK0m0bsK2GhtcvSeD-34" target="bYGNK0m0bsK2GhtcvSeD-35">
          <mxGeometry relative="1" as="geometry" />
        </mxCell>
        <mxCell id="bYGNK0m0bsK2GhtcvSeD-41" style="edgeStyle=orthogonalEdgeStyle;rounded=0;orthogonalLoop=1;jettySize=auto;html=1;exitX=1;exitY=0.5;exitDx=0;exitDy=0;entryX=0.5;entryY=0;entryDx=0;entryDy=0;" edge="1" parent="1" source="bYGNK0m0bsK2GhtcvSeD-34" target="bYGNK0m0bsK2GhtcvSeD-39">
          <mxGeometry relative="1" as="geometry" />
        </mxCell>
        <mxCell id="bYGNK0m0bsK2GhtcvSeD-34" value="EXECUTING" style="rounded=0;whiteSpace=wrap;html=1;" vertex="1" parent="1">
          <mxGeometry x="180" y="850" width="160" height="40" as="geometry" />
        </mxCell>
        <mxCell id="bYGNK0m0bsK2GhtcvSeD-35" value="SUCCESSFUL" style="rounded=0;whiteSpace=wrap;html=1;" vertex="1" parent="1">
          <mxGeometry x="80" y="910" width="160" height="40" as="geometry" />
        </mxCell>
        <mxCell id="bYGNK0m0bsK2GhtcvSeD-36" value="" style="endArrow=classic;html=1;rounded=0;exitX=0.5;exitY=1;exitDx=0;exitDy=0;entryX=0.5;entryY=0;entryDx=0;entryDy=0;" edge="1" parent="1" source="bYGNK0m0bsK2GhtcvSeD-32" target="bYGNK0m0bsK2GhtcvSeD-33">
          <mxGeometry width="50" height="50" relative="1" as="geometry">
            <mxPoint x="560" y="850" as="sourcePoint" />
            <mxPoint x="610" y="800" as="targetPoint" />
          </mxGeometry>
        </mxCell>
        <mxCell id="bYGNK0m0bsK2GhtcvSeD-39" value="FAILED" style="rounded=0;whiteSpace=wrap;html=1;" vertex="1" parent="1">
          <mxGeometry x="280" y="910" width="160" height="40" as="geometry" />
        </mxCell>
        <mxCell id="bYGNK0m0bsK2GhtcvSeD-52" style="edgeStyle=orthogonalEdgeStyle;rounded=0;orthogonalLoop=1;jettySize=auto;html=1;exitX=0.5;exitY=1;exitDx=0;exitDy=0;entryX=0.5;entryY=0;entryDx=0;entryDy=0;" edge="1" parent="1" source="bYGNK0m0bsK2GhtcvSeD-45" target="bYGNK0m0bsK2GhtcvSeD-34">
          <mxGeometry relative="1" as="geometry" />
        </mxCell>
        <mxCell id="bYGNK0m0bsK2GhtcvSeD-45" value="" style="ellipse;html=1;shape=endState;fillColor=strokeColor;" vertex="1" parent="1">
          <mxGeometry x="245" y="800" width="30" height="30" as="geometry" />
        </mxCell>
        <mxCell id="bYGNK0m0bsK2GhtcvSeD-53" value="CREATED" style="rounded=0;whiteSpace=wrap;html=1;" vertex="1" parent="1">
          <mxGeometry x="580" y="560" width="160" height="40" as="geometry" />
        </mxCell>
        <mxCell id="bYGNK0m0bsK2GhtcvSeD-55" value="WAITING" style="rounded=0;whiteSpace=wrap;html=1;" vertex="1" parent="1">
          <mxGeometry x="580" y="620" width="160" height="40" as="geometry" />
        </mxCell>
        <mxCell id="bYGNK0m0bsK2GhtcvSeD-56" style="edgeStyle=orthogonalEdgeStyle;rounded=0;orthogonalLoop=1;jettySize=auto;html=1;exitX=0;exitY=0.5;exitDx=0;exitDy=0;entryX=0.5;entryY=0;entryDx=0;entryDy=0;" edge="1" parent="1" source="bYGNK0m0bsK2GhtcvSeD-58" target="bYGNK0m0bsK2GhtcvSeD-59">
          <mxGeometry relative="1" as="geometry" />
        </mxCell>
        <mxCell id="bYGNK0m0bsK2GhtcvSeD-57" style="edgeStyle=orthogonalEdgeStyle;rounded=0;orthogonalLoop=1;jettySize=auto;html=1;exitX=1;exitY=0.5;exitDx=0;exitDy=0;entryX=0.5;entryY=0;entryDx=0;entryDy=0;" edge="1" parent="1" source="bYGNK0m0bsK2GhtcvSeD-58" target="bYGNK0m0bsK2GhtcvSeD-61">
          <mxGeometry relative="1" as="geometry" />
        </mxCell>
        <mxCell id="bYGNK0m0bsK2GhtcvSeD-58" value="EXECUTING" style="rounded=0;whiteSpace=wrap;html=1;" vertex="1" parent="1">
          <mxGeometry x="580" y="850" width="160" height="40" as="geometry" />
        </mxCell>
        <mxCell id="bYGNK0m0bsK2GhtcvSeD-59" value="SUCCESSFUL" style="rounded=0;whiteSpace=wrap;html=1;" vertex="1" parent="1">
          <mxGeometry x="480" y="910" width="160" height="40" as="geometry" />
        </mxCell>
        <mxCell id="bYGNK0m0bsK2GhtcvSeD-60" value="" style="endArrow=classic;html=1;rounded=0;exitX=0.5;exitY=1;exitDx=0;exitDy=0;entryX=0.5;entryY=0;entryDx=0;entryDy=0;" edge="1" parent="1" source="bYGNK0m0bsK2GhtcvSeD-53" target="bYGNK0m0bsK2GhtcvSeD-55">
          <mxGeometry width="50" height="50" relative="1" as="geometry">
            <mxPoint x="960" y="730" as="sourcePoint" />
            <mxPoint x="1010" y="680" as="targetPoint" />
          </mxGeometry>
        </mxCell>
        <mxCell id="bYGNK0m0bsK2GhtcvSeD-61" value="FAILED" style="rounded=0;whiteSpace=wrap;html=1;" vertex="1" parent="1">
          <mxGeometry x="680" y="910" width="160" height="40" as="geometry" />
        </mxCell>
        <mxCell id="bYGNK0m0bsK2GhtcvSeD-63" value="" style="ellipse;html=1;shape=endState;fillColor=strokeColor;" vertex="1" parent="1">
          <mxGeometry x="645" y="740" width="30" height="30" as="geometry" />
        </mxCell>
        <mxCell id="bYGNK0m0bsK2GhtcvSeD-64" value="EXECUTING" style="rounded=0;whiteSpace=wrap;html=1;" vertex="1" parent="1">
          <mxGeometry x="580" y="680" width="160" height="40" as="geometry" />
        </mxCell>
        <mxCell id="bYGNK0m0bsK2GhtcvSeD-65" value="WAITING" style="rounded=0;whiteSpace=wrap;html=1;" vertex="1" parent="1">
          <mxGeometry x="580" y="790" width="160" height="40" as="geometry" />
        </mxCell>
      </root>
    </mxGraphModel>
  </diagram>
</mxfile>
